<?xml version="1.0" encoding="UTF-8" standalone="no"?>
<svg
   xmlns:dc="http://purl.org/dc/elements/1.1/"
   xmlns:cc="http://creativecommons.org/ns#"
   xmlns:rdf="http://www.w3.org/1999/02/22-rdf-syntax-ns#"
   xmlns:svg="http://www.w3.org/2000/svg"
   xmlns="http://www.w3.org/2000/svg"
   xmlns:sodipodi="http://sodipodi.sourceforge.net/DTD/sodipodi-0.dtd"
   xmlns:inkscape="http://www.inkscape.org/namespaces/inkscape"
   sodipodi:docname="Vilaka_flower.svg"
   inkscape:version="1.0 (4035a4fb49, 2020-05-01)"
   id="svg8"
   version="1.1"
   viewBox="0 0 63.105719 59.850786"
   height="59.850788mm"
   width="63.105721mm">
  <defs
     id="defs2" />
  <sodipodi:namedview
     inkscape:document-rotation="0"
     inkscape:window-maximized="1"
     inkscape:window-y="-8"
     inkscape:window-x="-8"
     inkscape:window-height="1089"
     inkscape:window-width="2048"
     fit-margin-bottom="0"
     fit-margin-right="0"
     fit-margin-left="0"
     fit-margin-top="0"
     inkscape:snap-global="false"
     showgrid="false"
     inkscape:current-layer="layer1"
     inkscape:document-units="mm"
     inkscape:cy="89.61888"
     inkscape:cx="108.52926"
     inkscape:zoom="2.8848003"
     inkscape:pageshadow="2"
     inkscape:pageopacity="0.0"
     borderopacity="1.0"
     bordercolor="#666666"
     pagecolor="#ffffff"
     id="base"
     units="mm">
    <inkscape:grid
       originy="-515.60805"
       originx="1133.7355"
       id="grid1070"
       type="xygrid" />
  </sodipodi:namedview>
  <metadata
     id="metadata5">
    <rdf:RDF>
      <cc:Work
         rdf:about="">
        <dc:format>image/svg+xml</dc:format>
        <dc:type
           rdf:resource="http://purl.org/dc/dcmitype/StillImage" />
        <dc:title></dc:title>
      </cc:Work>
    </rdf:RDF>
  </metadata>
  <g
     transform="translate(1133.7355,278.45886)"
     id="layer1"
     inkscape:groupmode="layer"
     inkscape:label="flower">
    <g
       transform="translate(-26.726958,-114.39136)"
       id="g844">
      <g
         id="g884" />
      <g
         transform="translate(103.27295,-20.953931)"
         id="g912">
        <g
           style="fill:none;fill-opacity:1;stroke:#000000;stroke-width:0.1;stroke-miterlimit:4;stroke-dasharray:none;stroke-opacity:1"
           transform="translate(-346.075,-53.975001)"
           id="g864">
          <path
             id="path1068"
             style="opacity:1;fill:none;fill-opacity:1;stroke:#000000;stroke-width:0.1;stroke-linejoin:miter;stroke-miterlimit:4;stroke-dasharray:none;stroke-dashoffset:0;stroke-opacity:1"
             d="m -827.2157,-29.671617 c -1.90083,-0.942157 -3.42906,-2.668552 -3.9377,-4.749233 -0.6991,-2.680168 -0.20347,-5.460919 -0.27125,-8.187885 -0.0183,-2.016072 0.0526,-4.045053 -0.20548,-6.048521 -0.17945,-0.942136 -1.68537,-1.201801 -2.2069,-0.425893 -0.28947,1.572325 -0.24724,3.186733 -0.31598,4.779804 -0.084,2.775876 0.0215,5.561485 -0.23684,8.329373 -0.27289,2.01103 -1.4499,3.82947 -2.9667,5.140845 -0.83225,0.750442 -1.90465,1.216383 -3.0321,1.224666 -2.86659,0.08957 -5.73059,-0.757979 -8.18418,-2.220636 -1.61232,-0.818149 -3.17164,-1.776196 -4.46299,-3.055156 -1.24552,-1.247946 -2.48786,-2.685575 -2.8571,-4.458666 -0.1385,-1.458598 0.41239,-2.887153 1.03917,-4.178212 0.85365,-1.739853 2.49571,-2.896215 4.09183,-3.90141 0.87504,-0.584404 1.93825,-0.773034 2.80184,-1.377233 1.43065,-0.947118 2.80232,-1.991184 4.32601,-2.792015 0.82775,-0.485361 1.85006,-1.09066 1.96879,-2.139405 0.0672,-0.757446 -0.63106,-1.419566 -1.38384,-1.320718 -0.77798,0.0044 -1.35238,0.56632 -1.89686,1.042193 -2.3326,1.624969 -5.05,2.60326 -7.35736,4.271948 -1.26854,0.843371 -2.61848,1.925317 -4.24365,1.734972 -2.07769,-0.153128 -4.34803,-0.674718 -5.72019,-2.374608 -1.12687,-1.438675 -1.76429,-3.256446 -1.8707,-5.075376 -0.0717,-2.750177 0.0667,-5.507092 0.35557,-8.242498 0.65449,-4.246202 4.59711,-6.871728 8.57028,-6.174262 1.1227,0.366825 2.17534,0.927783 3.26124,1.391799 0.81373,0.307147 1.40556,0.948674 2.099,1.421614 0.99515,0.251299 1.81478,0.933421 2.67991,1.457702 1.32889,0.824493 2.63119,1.760605 4.13698,2.23287 0.8124,0.377173 1.48357,-0.478379 1.28473,-1.241899 -0.16665,-0.840185 -1.09784,-1.120263 -1.7055,-1.592506 -3.34506,-2.1817 -6.94201,-3.94898 -10.2592,-6.173885 -1.2497,-1.011063 -1.77632,-2.649081 -2.05365,-4.177587 -0.23772,-1.329173 -0.0907,-2.764244 0.68104,-3.902755 0.53415,-0.877029 1.38109,-1.51626 1.89281,-2.403092 1.33594,-1.309819 2.9375,-2.316464 4.51615,-3.306513 1.12761,-0.6604 2.30965,-1.223949 3.46359,-1.834781 1.39271,-0.551359 2.85892,-0.989371 4.35929,-1.089929 2.01663,0.07094 4.08621,0.855296 5.42258,2.411225 1.14182,1.163133 1.13767,2.898774 1.21641,4.420498 0.12511,3.668517 -0.0555,7.34411 0.16382,11.009515 -0.0479,0.84333 0.45498,1.781895 1.40171,1.759123 0.99025,0.01561 0.80355,-1.176277 0.85752,-1.835579 0.17462,-3.681738 -0.061,-7.378108 0.28318,-11.051744 0.13226,-1.521454 0.60111,-3.086811 1.73439,-4.168958 1.02804,-1.12451 2.37357,-1.976546 3.88752,-2.24587 1.67316,-0.445646 3.46467,-0.275038 5.05429,0.394703 2.31006,0.961343 4.53926,2.144847 6.58785,3.584696 1.91116,1.364459 3.70911,3.239552 4.04502,5.661837 0.28825,1.883284 -0.27299,3.890084 -1.47859,5.360034 -0.60516,0.619591 -1.45937,0.899605 -2.16794,1.382394 -2.4766,1.526007 -4.99444,2.987965 -7.60057,4.282267 -1.04136,0.608512 -2.25597,1.23555 -2.7395,2.411132 -0.3131,0.728351 0.28067,1.6806 1.11522,1.539721 0.74888,-0.145667 1.35616,-0.651475 2.08761,-0.876033 2.46772,-1.145651 4.64225,-2.82496 7.11452,-3.96408 1.33519,-0.622256 2.56894,-1.560944 4.05201,-1.793976 1.36922,-0.09159 2.69125,0.39234 4.01134,0.683203 0.90003,0.239769 1.45052,1.039413 2.16685,1.573177 1.37679,1.257926 1.71862,3.193269 2.0875,4.933641 0.3582,1.719146 0.53593,3.488295 0.28407,5.236093 -0.1882,1.549015 -0.36377,3.102127 -0.45179,4.659387 -0.3896,1.541826 -1.26778,2.925671 -2.27401,4.140801 -1.64645,1.87232 -4.47967,2.53721 -6.81551,1.723095 -1.22168,-0.798114 -2.69141,-1.103225 -3.91229,-1.90967 -1.14367,-0.695242 -2.15209,-1.595127 -3.34133,-2.221531 -1.53558,-0.768798 -2.99885,-1.669487 -4.49048,-2.516751 -0.61088,-0.396578 -1.803,-0.698517 -1.98778,0.310827 -0.34974,0.954817 0.4209,1.814516 1.17813,2.276997 1.0026,0.589703 2.09982,1.004535 3.08819,1.624983 1.27501,0.715351 2.45913,1.60751 3.81183,2.170239 1.17702,0.705844 2.31327,1.481956 3.49771,2.174433 2.85157,2.189788 3.45785,6.629527 1.45682,9.578108 -2.75042,3.35842 -7.03632,4.980608 -10.6443,6.73653 -1.46473,0.392853 -3.02654,0.357685 -4.51438,0.111241 -0.18533,-0.03818 -0.36984,-0.08443 -0.54768,-0.14882 z"
             sodipodi:nodetypes="cccccccccccccccccccccccccccccccccccccccccccccccccccccccccccccccccccccccccccc" />
        </g>
      </g>
    </g>
  </g>
</svg>
