<?xml version="1.0" encoding="UTF-8" standalone="no"?>
<svg
   xmlns:dc="http://purl.org/dc/elements/1.1/"
   xmlns:cc="http://creativecommons.org/ns#"
   xmlns:rdf="http://www.w3.org/1999/02/22-rdf-syntax-ns#"
   xmlns:svg="http://www.w3.org/2000/svg"
   xmlns="http://www.w3.org/2000/svg"
   xmlns:sodipodi="http://sodipodi.sourceforge.net/DTD/sodipodi-0.dtd"
   xmlns:inkscape="http://www.inkscape.org/namespaces/inkscape"
   width="268.68896mm"
   height="311.67917mm"
   viewBox="0 0 268.68896 311.67916"
   version="1.1"
   id="svg8"
   inkscape:version="1.0 (4035a4fb49, 2020-05-01)"
   sodipodi:docname="Vilaka_spikes.svg">
  <defs
     id="defs2" />
  <sodipodi:namedview
     id="base"
     pagecolor="#ffffff"
     bordercolor="#666666"
     borderopacity="1.0"
     inkscape:pageopacity="0.0"
     inkscape:pageshadow="2"
     inkscape:zoom="1.4142136"
     inkscape:cx="225.9151"
     inkscape:cy="416.37439"
     inkscape:document-units="mm"
     inkscape:current-layer="g876"
     showgrid="false"
     inkscape:snap-global="false"
     fit-margin-top="0"
     fit-margin-left="0"
     fit-margin-right="0"
     fit-margin-bottom="0"
     inkscape:window-width="2048"
     inkscape:window-height="1089"
     inkscape:window-x="-8"
     inkscape:window-y="-8"
     inkscape:window-maximized="1"
     inkscape:document-rotation="0">
    <inkscape:grid
       type="xygrid"
       id="grid1070"
       originx="1160.2692"
       originy="-279.29766" />
  </sodipodi:namedview>
  <metadata
     id="metadata5">
    <rdf:RDF>
      <cc:Work
         rdf:about="">
        <dc:format>image/svg+xml</dc:format>
        <dc:type
           rdf:resource="http://purl.org/dc/dcmitype/StillImage" />
        <dc:title />
      </cc:Work>
    </rdf:RDF>
  </metadata>
  <g
     inkscape:label="Spikes"
     inkscape:groupmode="layer"
     id="layer1"
     transform="translate(1160.2692,293.97683)">
    <g
       style="fill:none;fill-opacity:1;stroke:#000000;stroke-opacity:1"
       id="g844"
       transform="translate(-26.726958,-114.39136)">
      <g
         style="fill:none;fill-opacity:1;stroke:#000000;stroke-opacity:1"
         id="g884" />
      <g
         style="fill:none;fill-opacity:1;stroke:#000000;stroke-opacity:1"
         id="g912"
         transform="translate(103.27295,-20.953931)">
        <g
           transform="matrix(0.68851948,0,0,0.68851948,-235.41195,-467.89447)"
           id="g1032"
           style="fill:none;fill-opacity:1;stroke-width:0.14523917;stroke-miterlimit:4;stroke-dasharray:none;stroke:#000000;stroke-opacity:1">
          <g
             transform="translate(270.74559,578.25422)"
             id="g1044"
             style="fill:none;fill-opacity:1;stroke-width:0.14523917;stroke-miterlimit:4;stroke-dasharray:none;stroke:#000000;stroke-opacity:1">
            <g
               transform="translate(-280.88295,-463.17785)"
               id="g1062"
               style="fill:none;fill-opacity:1;stroke-width:0.14523917;stroke-miterlimit:4;stroke-dasharray:none;stroke:#000000;stroke-opacity:1">
              <g
                 transform="translate(-735.39639,51.910333)"
                 id="g876"
                 style="fill:none;fill-opacity:1;stroke-width:0.14523917;stroke-miterlimit:4;stroke-dasharray:none;stroke:#000000;stroke-opacity:1">
                <path
                   style="opacity:1;fill:none;fill-opacity:1;stroke:#000000;stroke-width:0.145239;stroke-linejoin:miter;stroke-miterlimit:4;stroke-dasharray:none;stroke-dashoffset:0;stroke-opacity:1"
                   d="m -642.44486,560.38497 c -1.63401,0.42166 -4.56824,0.86744 -4.56824,0.86744 -2.77873,0.17819 -8.10218,1.15983 -11.82986,2.18142 -3.72769,1.02159 -7.05382,1.57758 -7.39138,1.23553 -0.73382,-0.74355 4.82743,-5.62529 8.89469,-7.80787 8.63145,-4.63182 10.58725,-6.45662 5.99448,-5.59293 -5.71852,1.07539 -11.66046,1.39662 -12.11869,0.65516 -0.58843,-0.9521 4.73599,-3.60154 11.08514,-5.51598 2.50114,-0.75417 5.29167,-1.68319 6.20118,-2.06449 0.9095,-0.38131 3.14192,-0.97677 4.96093,-1.32325 l 3.30729,-0.62997 -3.30729,-0.4975 c -1.81901,-0.27363 -6.71705,-0.37291 -10.88453,-0.22063 -4.16748,0.15227 -7.79188,-0.0705 -8.05424,-0.49494 -1.22224,-1.97763 8.83227,-4.94062 25.12965,-7.40553 9.48756,-1.43495 9.49447,-1.43766 6.18324,-2.42972 -2.935,-0.87935 -6.63948,-1.57165 -16.92164,-3.16234 -8.92342,-1.38049 -8.42045,-2.33037 1.96122,-3.70382 7.10081,-0.9394 27.01719,-0.67657 32.35193,0.42695 2.2795,0.47153 2.2141,0.36672 -0.80714,-1.29362 -3.9298,-2.15964 -12.80303,-5.32955 -18.34523,-6.55373 -13.20086,-2.91585 -13.08563,-4.12391 0.39095,-4.09819 10.0053,0.0191 26.42323,2.24181 29.76266,4.02937 1.0484,0.5612 2.31857,0.8829 2.82259,0.7149 0.84152,-0.28051 -1.64568,-1.99372 -8.03607,-5.53534 -2.06865,-1.14646 -11.63336,-5.01525 -17.15656,-6.93958 -2.24288,-0.78143 -1.70657,-2.21042 0.82682,-2.20312 3.17516,0.009 21.22311,3.831 23.07422,4.88622 2.22725,1.26963 11.03437,4.03 11.01965,3.45383 -0.0224,-0.87572 -8.30308,-6.6033 -14.46247,-10.00336 -6.57754,-3.63088 -9.04828,-5.78465 -6.63598,-5.78465 2.47219,0 16.27675,5.07788 24.4183,8.98204 4.32015,2.07167 8.22689,3.92913 8.68165,4.1277 1.76896,0.7724 -3.233,-2.65797 -4.69369,-4.50368 -0.95522,-1.20701 -1.68284,-2.02513 -2.68435,-2.61864 -0.73078,-0.43307 -1.77163,-2.17458 -3.36589,-3.03315 -2.48311,-1.34141 -4.22472,-3.6013 -6.20594,-4.92319 -1.81901,-1.20376 -3.3073,-2.55545 -3.3073,-3.00375 0,-0.9923 2.67383,-1.08109 3.76205,-0.12493 0.43201,0.37959 2.64583,1.3728 4.91959,2.20714 2.27377,0.83433 5.694,2.38411 7.60052,3.44395 5.04958,1.43983 6.90273,3.46179 10.58959,5.99887 4.00926,2.74614 4.07169,2.76068 2.06706,0.4812 -3.87066,-4.40132 -5.35998,-5.79176 -9.50233,-8.87139 -7.5653,-5.6244 -8.67928,-6.60206 -8.27254,-7.26019 1.00158,-1.62057 23.60719,7.84762 27.45546,11.49952 0.7526,0.73686 6.16355,3.48485 6.63075,3.06016 0.34609,-0.3461 -3.74048,-4.86344 -9.08127,-10.03853 -5.3408,-5.17509 -9.71054,-9.63608 -9.71054,-9.91332 0,-0.54199 2.68988,0.0884 5.37435,1.25956 0.9095,0.39678 3.33494,1.43063 5.38986,2.29744 2.05492,0.8668 5.40356,2.64864 7.44141,3.95964 2.03785,1.31101 4.46616,2.79667 5.39623,3.30149 2.06806,1.12248 4.87589,3.34341 8.03973,6.35923 1.31195,1.25057 2.57349,2.27377 2.80342,2.27377 0.78496,0 -4.25996,-8.10181 -6.77208,-10.87551 -1.37837,-1.52189 -3.08549,-3.60105 -3.79361,-4.62036 -0.70812,-1.01931 -2.87777,-3.00529 -4.82147,-4.41329 -1.94369,-1.40801 -3.21314,-2.85956 -2.82099,-3.22568 5.00988,-2.1755 22.56966,11.54605 22.9627,11.8173 1.40525,0.97114 4.37536,3.44979 6.60024,5.5081 8.35149,7.72622 0.0239,-3.44422 -10.98503,-14.73499 -2.90737,-2.98182 -4.85141,-5.56641 -4.32008,-5.74351 1.82976,-0.60992 16.41434,8.07967 21.12542,12.58666 4.34418,4.15599 8.06178,7.21166 8.38304,6.89041 0.90882,-0.90883 -9.61971,-17.73365 -12.02908,-19.22272 -1.2316,-0.76117 -1.03461,-2.90522 0.26693,-2.90522 0.61165,0 1.78552,0.74415 2.60862,1.65365 0.82309,0.90951 1.90395,1.66631 2.40191,1.68178 1.0533,0.0327 13.09574,11.43495 16.56198,15.6815 2.05365,2.51596 2.27839,2.62394 1.72093,0.82682 -0.91348,-2.94485 -5.29571,-11.27663 -8.47023,-16.10419 -2.55161,-3.88026 -3.37078,-6.22002 -2.17771,-6.22002 1.225,0 11.65528,9.88166 15.07362,14.28079 3.04473,4.92605 3.85543,7.25514 6.88445,9.38395 0.64125,0.39631 0.73733,-0.0387 0.31319,-1.41794 -0.33651,-1.0943 -1.16422,-4.20483 -1.83933,-6.91228 -0.67513,-2.70745 -2.09593,-6.80023 -3.15736,-9.09505 -1.06142,-2.29483 -2.1879,-5.04151 -2.50326,-6.10373 -0.537,-1.80872 -0.45034,-1.86632 1.36519,-0.90747 2.99261,1.58052 6.90333,6.05199 9.88275,11.29981 3.53719,4.1032 4.27239,7.5786 6.17535,11.79613 l 2.06416,4.54753 -0.34776,-8.68164 c -0.25491,-6.36364 -0.85701,-10.05609 -2.25507,-13.82938 -1.04903,-2.83126 -1.65259,-5.40246 -1.34127,-5.71379 0.80804,-0.80803 3.78806,2.09445 5.63377,5.48718 0.86588,1.59164 1.91153,3.45199 2.32367,4.13412 1.62299,2.68614 3.19406,7.2739 4.24717,12.40234 1.08309,5.27446 1.11542,5.32056 1.73912,2.48047 2.22039,-7.2939 -1.23925,-29.03489 3.46694,-19.99195 1.55837,3.13983 3.95271,14.5049 4.19681,19.92077 0.10988,2.43779 1.82262,1.62403 2.87019,-1.36368 0.84283,-2.40379 8.26223,-15.81982 9.66549,-17.47751 0.1438,-0.16987 0.84861,-0.0835 1.56626,0.19185 1.172,0.44974 1.17835,0.74524 0.0623,2.90329 -1.79598,3.47312 -6.25677,17.18889 -6.25677,19.23806 0,1.52903 0.16883,1.60351 1.37759,0.60782 0.75767,-0.62413 2.84994,-2.99512 4.64948,-5.26889 4.56142,-5.76347 17.12397,-14.03567 17.12397,-11.2758 0,0.87328 -4.58711,6.79174 -6.2517,8.06617 -2.05718,1.57501 -8.72151,12.27455 -7.83036,12.5716 0.4634,0.15447 1.86806,-0.51336 3.12148,-1.48407 7.65822,-5.93087 16.62125,-10.58828 21.66424,-11.25726 5.04919,-0.6698 5.37905,0.29478 1.07857,3.15405 -5.4353,3.61378 -18.78175,17.70738 -15.37652,16.23732 0.38523,-0.1663 3.49094,-1.66307 6.90158,-3.32614 9.36712,-4.56752 12.31898,-5.60341 18.19011,-6.38344 6.20921,-0.82495 7.96844,-0.49232 6.53444,1.23554 -3.26795,1.63404 -6.47323,3.81637 -9.33385,5.27779 -3.08515,2.21072 -8.8459,5.32463 -11.25658,7.85482 -1.81654,1.93361 -1.33316,3.06948 0.51833,1.21799 1.7868,-1.7868 18.764,-5.36416 24.07965,-5.07395 2.8422,0.15517 5.16764,0.55483 5.16764,0.88813 0,0.3333 -1.76733,1.39721 -3.92741,2.36424 -12.54694,5.6171 -14.57454,6.72972 -18.3968,10.09499 l -2.89389,2.5479 4.54753,-0.41103 c 14.55021,-1.31511 21.94464,-1.45604 26.21804,-0.4997 2.50126,0.55976 4.2297,1.33374 3.84096,1.71996 -0.38873,0.38622 -3.12524,1.23804 -6.08113,1.89295 -11.30823,2.50544 -21.4974,5.92857 -21.4974,7.22223 0,0.33786 3.44165,0.78608 7.64811,0.99605 9.0886,0.45366 17.08143,1.8312 21.19752,3.65334 l 2.98705,1.32234 -7.4414,1.08661 c -4.09278,0.59763 -9.19536,1.30331 -11.33907,1.56819 -2.14371,0.26487 -5.25827,0.95263 -6.92122,1.52836 -2.97666,1.03055 -2.89058,1.06236 5.55131,2.05125 4.71618,0.55246 10.80728,1.75013 13.5358,2.6615 2.72851,0.91137 5.62727,1.88118 6.44168,2.15516 3.92461,1.32024 -0.0999,2.106 -11.84042,2.31174 -7.03526,0.12327 -13.44249,0.50222 -14.23831,0.84209 -2.01441,0.86031 -1.80902,2.09468 0.34854,2.09468 1.70122,0 9.75992,2.83013 15.15439,5.32207 9.41135,4.3475 11.98894,5.70234 11.98894,6.30168 0,1.36483 -1.74678,1.70297 -4.35699,0.84344 -6.30547,-1.50933 -12.92878,-2.85299 -18.7729,-2.65636 -2.62017,0.10128 -2.07499,0.51865 6.20117,4.7474 10.77545,5.50576 15.86043,8.61681 16.46105,10.07105 0.56116,1.35871 -0.83023,1.71568 -2.76707,1.11963 -1.30694,-0.4022 -10.0677,-2.53771 -21.15654,-3.11055 l -8.26823,-0.42713 4.74233,2.4722 c 2.60829,1.3597 5.77089,3.18493 7.028,4.05605 2.11091,0.0812 5.66187,4.35735 6.93848,4.78027 1.94841,0.6184 8.15943,6.17005 8.16158,7.29512 0.002,0.91654 -3.53168,0.24549 -8.26687,-1.56999 -4.51495,-1.73104 -12.88126,-3.64674 -15.70964,-3.59717 -1.20753,0.0212 -1.55134,0.22054 -0.82682,0.47948 0.68213,0.24379 1.6123,0.86553 2.06706,1.38166 0.45475,0.51613 2.68717,2.2294 4.96093,3.80728 2.25502,3.45731 12.73219,8.75156 12.81576,12.84077 0,1.75164 -0.9555,1.578 -7.25286,-1.31807 -5.75649,-2.64733 -15.61075,-5.73056 -18.16148,-5.68241 -1.20424,0.0227 -1.09834,0.32577 0.60965,1.74455 5.21673,4.33341 9.74861,8.80538 11.61058,11.4571 1.1176,1.59164 2.23596,3.07992 2.48525,3.30729 0.24928,0.22738 1.31822,1.65131 2.37542,3.16429 2.68467,3.8421 1.15795,4.98681 -2.40657,1.80441 -1.08995,-0.13747 -7.22455,-5.29222 -7.6568,-5.43486 -1.0232,-0.31769 -2.84797,-1.27293 -4.05505,-2.12278 -1.20708,-0.84984 -2.73122,-1.54517 -3.38696,-1.54517 -0.65575,0 -2.38884,-0.59692 -3.85131,-1.3265 -1.46247,-0.72958 -2.8635,-1.12204 -3.1134,-0.87214 -0.2499,0.2499 0.8895,2.09438 2.532,4.09883 1.6425,2.00446 2.98637,3.92078 2.98637,4.2585 0,0.33772 0.74771,1.6641 1.66159,2.94751 0.91387,1.28342 2.80252,5.01466 4.19701,8.29164 3.0987,7.28187 2.27681,9.22632 -1.86733,4.41773 -1.51307,-1.75566 -4.42535,-4.79302 -6.47174,-6.7497 -2.04638,-1.95668 -5.31488,-5.07987 -7.26333,-6.94043 -1.94844,-1.86057 -3.74263,-3.18284 -3.98709,-2.93838 -0.24446,0.24446 0.51257,1.9605 1.68227,3.81345 1.16971,1.85293 2.12675,3.73783 2.12675,4.18865 0,0.45082 0.88559,2.82216 1.96798,5.26964 2.91918,6.60078 5.19435,16.87756 4.00077,18.07115 -0.72026,0.72025 -1.09132,0.5657 -1.51639,-0.6316 -0.30954,-0.87186 -1.35249,-2.70141 -2.31768,-4.06567 -0.96518,-1.36426 -2.30542,-3.57367 -2.97831,-4.90981 -0.67289,-1.33614 -1.96757,-3.24216 -2.87708,-4.2356 -0.9095,-0.99344 -2.58382,-3.18321 -3.7207,-4.86616 -2.24133,-3.3179 -5.09113,-6.391 -5.52462,-5.95752 -0.14882,0.14883 0.063,1.35413 0.47075,2.67844 2.05802,6.6843 2.97004,13.16121 2.97802,21.14886 0.0121,12.10406 -1.1178,13.16613 -3.67135,3.45102 -2.29814,-8.74345 -7.82839,-21.77863 -9.2397,-21.77863 -0.28618,0 -0.53614,3.99976 -0.55546,8.88835 -0.0407,10.30037 -1.3025,19.15687 -3.25426,22.84145 l -1.36843,2.58337 -0.98841,-8.26825 c -1.04945,-8.77887 -3.33055,-21.03891 -4.04798,-21.75634 -0.23653,-0.23654 -0.48516,1.02721 -0.55249,2.80832 -0.0673,1.78111 -0.17358,3.79649 -0.23612,4.47862 -0.62306,6.79627 -5.2042,22.56088 -6.35028,21.85256 -0.40292,-0.24902 -0.73259,-3.19439 -0.73259,-6.5453 0,-6.70449 -1.41818,-18.34063 -2.46281,-20.20728 -0.44256,-0.79082 -0.99316,0.45186 -1.64664,3.71632 -1.04099,5.20037 -5.3014,18.25212 -7.20122,22.06098 -2.27003,4.55105 -2.9576,2.65885 -2.70399,-7.44141 0.38479,-15.32474 0.076,-21.57896 -0.97617,-19.76906 -1.87215,5.53125 -1.92749,6.1066 -3.54472,9.84719 -4.15003,9.78405 -6.62806,14.74465 -7.97413,15.96281 -3.35935,0.33262 2.32895,-33.04464 0.13521,-24.02433 -0.4743,2.23969 -4.85661,11.80265 -5.87293,12.81575 -0.22811,0.22738 -0.90208,1.34359 -1.49774,2.48047 -1.76219,3.36341 -4.99597,7.00975 -5.64289,6.36285 -0.51386,-0.51388 1.61386,-9.52399 3.84562,-16.28472 0.75223,-2.27875 1.74443,-12.73935 1.01953,-10.7487 -0.24839,0.68213 -0.69947,1.42627 -1.00237,1.65364 -0.30291,0.22738 -1.76158,2.55085 -3.24149,5.16327 -1.47992,2.61242 -4.38357,6.82796 -6.45256,9.36786 -5.39464,6.62249 -6.24375,4.96736 -2.44538,-4.76666 3.26718,-8.37276 5.10383,-17.3205 3.42287,-16.67545 -0.53459,0.20514 -1.79466,1.83675 -2.80016,3.62578 -1.00549,1.78903 -2.45983,3.72517 -3.23187,4.30252 -0.77204,0.57736 -3.41356,3.39817 -5.87004,6.26848 -3.81416,4.45669 -4.63426,5.05083 -5.61626,4.06884 -0.98199,-0.982 -0.49009,-2.42522 3.36874,-9.88361 l 4.51863,-8.7337 -3.09335,0.15793 c -1.98567,0.10139 -5.46738,1.54974 -9.7232,4.04475 -8.56963,5.02404 -10.40232,4.63635 -7.31783,0.59212 l 7.97505,-9.03349 c 3.03781,-3.81426 6.73541,-10.03708 6.25156,-10.52094 -0.24007,-0.24007 -4.57105,2.19828 -9.62441,5.41856 -5.05335,3.22027 -9.62739,5.85505 -10.16454,5.85505 -0.53714,0 0.54819,-1.5813 2.41186,-3.514 3.67004,-3.80598 11.30577,-14.65774 10.72349,-15.24003 -0.19682,-0.19681 -2.90997,1.35435 -6.02924,3.44701 -3.11926,2.09267 -7.71777,4.73302 -10.21891,5.86744 -2.50114,1.13442 -5.19865,2.4233 -5.99446,2.8642 -2.64078,1.46303 -1.50479,-0.13452 3.75651,-5.2828 6.38377,-6.24666 11.58558,-12.61353 11.20408,-13.71348 -0.15647,-0.45112 -2.26955,0.51242 -4.69573,2.14121 -4.62796,3.10693 -13.97996,7.88042 -17.49956,8.9322 -1.56595,0.46795 -0.73969,-0.70483 3.40828,-4.83768 5.62472,-5.60421 12.78705,-14.3577 12.21142,-14.92426 -0.17792,-0.17511 -2.9088,1.19781 -6.06864,3.05094 -6.54512,3.83846 -18.2496,8.84887 -20.71317,8.8668 -1.33511,0.01 -1.16682,-0.28483 0.87363,-1.52911 1.38999,-0.84765 5.37712,-4.38179 8.86029,-7.85366 8.84765,-8.819 10.51463,-12.38945 3.41259,-7.30933 -5.31899,3.8047 -10.89424,6.81379 -15.66698,8.45586 -2.47914,0.85295 -4.50358,1.47784 -4.49875,1.38865 0.005,-0.0892 3.5395,-3.80753 7.85482,-8.26295 8.62726,-8.90736 10.36143,-12.30713 3.91554,-7.67621 -4.68274,3.36421 -17.26768,9.57581 -19.40097,9.57581 -1.09444,0 -0.24227,-1.28625 3.10659,-4.68904 4.74464,-4.82105 10.303,-12.50208 10.303,-14.23757 0,-0.53831 -2.25934,0.55554 -5.02076,2.43078 -5.38449,3.65654 -13.71283,7.76971 -17.66621,8.72493 l -2.42982,0.5871 3.87676,-4.9345 c 4.99478,-6.35755 5.0087,-7.67267 0.0519,-4.90226 -2.10365,1.17577 -3.96656,2.13775 -4.13978,2.13775 -0.17322,0 1.90846,-2.64806 4.62595,-5.88457 2.71749,-3.2365 5.88264,-7.77441 7.03367,-10.08421 3.62221,-7.26881 2.29153,-13.79685 -2.81234,-13.79685 -2.82502,0 -8.32405,3.71084 -8.32405,5.6172 0,1.17906 -3.31006,5.1315 -4.29748,5.1315 -0.5234,0 -0.67498,-0.97596 -0.38036,-2.44905 0.45257,-2.26283 0.25611,-2.51567 -2.58382,-3.32531 -4.2034,-1.19836 -10.10163,-2.0041 -10.10163,-1.37995 0,0.28153 1.83403,1.44124 4.07561,2.57714 4.20549,2.13108 6.55565,4.33677 3.67605,3.45008 -5.25586,-1.61839 -13.41869,-3.13423 -20.78818,-3.86037 -8.4514,-0.83274 -8.51585,-0.82526 -14.55417,1.6885 -3.33584,1.38871 -6.77117,3.0908 -7.63405,3.78241 -1.42042,1.13849 -0.70829,1.21595 7.52618,0.81871 5.00229,-0.24132 11.14144,-0.1683 13.64257,0.16225 4.39166,0.58042 4.27355,0.61522 -3.4454,1.01557 -4.39613,0.22799 -8.15249,0.86506 -8.59613,1.01772 -2.77057,0.95335 -2.52392,0.66181 -3.65608,0.95397 z"
                   id="path966" />
              </g>
            </g>
          </g>
        </g>
      </g>
    </g>
  </g>
</svg>
