<?xml version="1.0" encoding="UTF-8" standalone="no"?>
<svg
   xmlns:dc="http://purl.org/dc/elements/1.1/"
   xmlns:cc="http://creativecommons.org/ns#"
   xmlns:rdf="http://www.w3.org/1999/02/22-rdf-syntax-ns#"
   xmlns:svg="http://www.w3.org/2000/svg"
   xmlns="http://www.w3.org/2000/svg"
   xmlns:sodipodi="http://sodipodi.sourceforge.net/DTD/sodipodi-0.dtd"
   xmlns:inkscape="http://www.inkscape.org/namespaces/inkscape"
   width="268.68896mm"
   height="311.67917mm"
   viewBox="0 0 268.68896 311.67916"
   version="1.1"
   id="svg8"
   inkscape:version="1.0 (4035a4fb49, 2020-05-01)"
   sodipodi:docname="Vilaka_face.svg">
  <defs
     id="defs2" />
  <sodipodi:namedview
     id="base"
     pagecolor="#ffffff"
     bordercolor="#666666"
     borderopacity="1.0"
     inkscape:pageopacity="0.0"
     inkscape:pageshadow="2"
     inkscape:zoom="1.4142136"
     inkscape:cx="559.94903"
     inkscape:cy="372.94614"
     inkscape:document-units="mm"
     inkscape:current-layer="g876"
     showgrid="false"
     inkscape:snap-global="false"
     fit-margin-top="0"
     fit-margin-left="0"
     fit-margin-right="0"
     fit-margin-bottom="0"
     inkscape:window-width="2048"
     inkscape:window-height="1089"
     inkscape:window-x="-8"
     inkscape:window-y="-8"
     inkscape:window-maximized="1"
     inkscape:document-rotation="0">
    <inkscape:grid
       type="xygrid"
       id="grid1070"
       originx="1160.2692"
       originy="-279.29766" />
  </sodipodi:namedview>
  <metadata
     id="metadata5">
    <rdf:RDF>
      <cc:Work
         rdf:about="">
        <dc:format>image/svg+xml</dc:format>
        <dc:type
           rdf:resource="http://purl.org/dc/dcmitype/StillImage" />
        <dc:title />
      </cc:Work>
    </rdf:RDF>
  </metadata>
  <g
     inkscape:label="Face"
     inkscape:groupmode="layer"
     id="layer1"
     transform="translate(1160.2692,293.97683)">
    <g
       style="fill:none;stroke:#000000;stroke-opacity:1"
       id="g844"
       transform="translate(-26.726958,-114.39136)">
      <g
         style="fill:none;stroke:#000000;stroke-opacity:1"
         id="g884" />
      <g
         style="fill:none;stroke:#000000;stroke-opacity:1"
         id="g912"
         transform="translate(103.27295,-20.953931)">
        <g
           transform="matrix(0.68851948,0,0,0.68851948,-235.41195,-467.89447)"
           id="g1032"
           style="fill:none;fill-opacity:1;stroke-width:0.14523917;stroke-miterlimit:4;stroke-dasharray:none;stroke:#000000;stroke-opacity:1">
          <g
             transform="translate(270.74559,578.25422)"
             id="g1044"
             style="fill:none;fill-opacity:1;stroke-width:0.14523917;stroke-miterlimit:4;stroke-dasharray:none;stroke:#000000;stroke-opacity:1">
            <g
               transform="translate(-280.88295,-463.17785)"
               id="g1062"
               style="fill:none;fill-opacity:1;stroke-width:0.14523917;stroke-miterlimit:4;stroke-dasharray:none;stroke:#000000;stroke-opacity:1">
              <g
                 transform="translate(-735.39639,51.910333)"
                 id="g876"
                 style="fill:none;fill-opacity:1;stroke-width:0.14523917;stroke-miterlimit:4;stroke-dasharray:none;stroke:#000000;stroke-opacity:1">
                <path
                   id="path856"
                   d="m -532.0652,628.31209 c -1.53041,-0.35983 -2.29987,-1.29779 -5.68485,-1.35629 -9.35667,-0.16174 -13.98266,-0.49041 -24.92894,-4.52447 -4.17806,-0.30461 -18.34833,11.41588 -18.34833,11.41588 0,0 5.39883,-7.34522 8.11789,-9.22268 3.85541,-2.66209 2.93585,-2.08109 5.6681,-3.69868 l -4.17903,-1.39301 c 0,0 -6.2015,2.98131 -8.59823,4.94759 -2.39673,1.96628 -5.71615,6.53273 -5.71615,6.53273 0,0 1.40357,-5.40174 2.93013,-7.68557 1.52656,-2.28383 6.00435,-5.66811 6.00435,-5.66811 l -3.65064,-1.58515 c 0,0 -1.47733,0.99877 -4.65938,4.08296 -3.18205,3.08419 -6.86899,6.82096 -6.86899,6.82096 0,0 2.89055,-5.84356 3.9869,-7.58951 1.24097,-1.97626 3.79475,-4.75545 3.79475,-4.75545 v -0.048 l -3.60261,-1.10484 c 0,0 -4.92505,4.62273 -6.53274,6.38863 -1.60769,1.7659 -3.26636,4.03493 -3.26636,4.03493 0,0 0.96459,-4.21045 1.82531,-6.14846 0.86072,-1.93801 3.28358,-5.38786 3.28358,-5.38786 -13.61245,-2.72956 -15.73831,-2.86926 -32.34731,-2.22835 l -15.04034,0.58038 c 0,0 2.96897,-1.24874 3.38174,-1.69375 3.97769,-4.28838 6.55369,-9.10635 4.25158,-6.47432 -0.82818,0.94687 -8.61836,6.04736 -11.66197,7.4532 -1.78279,0.9095 -3.8321,0.4988 -4.30496,0.4988 -0.47286,0 -0.85976,-0.74414 -0.85976,-1.65364 0,-0.90951 -0.40691,-1.65365 -0.90424,-1.65365 -0.49732,0 -1.09882,0.74414 -1.33665,1.65365 -0.23786,0.9095 -0.90202,1.65364 -1.47593,1.65364 -1.47894,0 -3.15727,-4.49442 -2.47779,-6.63527 0.51196,-1.61305 0.94953,-1.73933 4.29066,-1.2383 3.59503,0.53911 3.83636,0.43647 7.15307,-3.04233 8.57977,-8.99904 11.00829,-19.2153 6.80379,-31.58786 -1.14125,-3.35836 -1.87121,-6.38623 -1.75018,-7.16927 l -0.02,-1.39963 c 0.44364,-0.15265 4.2,-0.78973 8.59613,-1.01771 7.71895,-0.40035 7.83706,-0.43515 3.4454,-1.01557 -2.50113,-0.33056 -8.64028,-0.40358 -13.64257,-0.16225 -8.23447,0.39723 -8.9466,0.31977 -7.52618,-0.81872 0.86288,-0.69161 4.29821,-2.39369 7.63405,-3.7824 6.03832,-2.51376 6.10277,-2.52125 14.55417,-1.68851 7.36949,0.72614 15.53232,2.24199 20.78818,3.86038 2.8796,0.88669 0.52944,-1.319 -3.67605,-3.45009 -2.24158,-1.13589 -4.07561,-2.2956 -4.07561,-2.57713 0,-0.62415 5.89823,0.18159 10.10163,1.37995 2.83993,0.80964 3.03639,1.06248 2.58382,3.3253 -0.29462,1.47309 -0.14304,2.44905 0.38036,2.44905 0.98742,0 4.29748,-3.95244 4.29748,-5.1315 0,-1.90636 5.49903,-5.6172 8.32405,-5.6172 5.10387,0 6.43455,6.52805 2.81234,13.79686 -1.15103,2.3098 -4.31618,6.8477 -7.03367,10.08421 -2.71749,3.23651 -4.79917,5.88457 -4.62595,5.88457 0.17322,0 2.03613,-0.96198 4.13978,-2.13775 4.9568,-2.77041 4.94288,-1.45529 -0.0519,4.90225 l -3.87676,4.9345 2.42982,-0.58709 c 3.95338,-0.95522 12.28172,-5.06839 17.66621,-8.72493 2.76142,-1.87525 5.02076,-2.9691 5.02076,-2.43079 0,1.73549 -5.55836,9.41653 -10.303,14.23757 -3.34886,3.40279 -4.20103,4.68904 -3.10659,4.68904 2.13329,0 14.71823,-6.21159 19.40097,-9.5758 6.44589,-4.63092 4.71172,-1.23116 -3.91554,7.6762 -4.31532,4.45543 -7.84982,8.17376 -7.85482,8.26296 -0.005,0.0892 2.01961,-0.5357 4.49875,-1.38866 4.77274,-1.64207 10.34799,-4.65116 15.66698,-8.45586 7.10204,-5.08011 5.43506,-1.50967 -3.41259,7.30933 -3.48317,3.47188 -7.4703,7.00601 -8.86029,7.85366 -2.04045,1.24429 -2.20874,1.53911 -0.87363,1.52911 2.46357,-0.0179 14.16805,-5.02834 20.71317,-8.8668 3.15984,-1.85313 5.89072,-3.22605 6.06864,-3.05093 0.57563,0.56655 -6.5867,9.32004 -12.21142,14.92426 -4.14797,4.13284 -4.97423,5.30562 -3.40828,4.83767 3.5196,-1.05178 12.8716,-5.82527 17.49956,-8.9322 2.42618,-1.62879 4.53926,-2.59233 4.69573,-2.14121 0.3815,1.09996 -4.82031,7.46682 -11.20408,13.71348 -5.2613,5.14828 -6.39729,6.74583 -3.75651,5.28281 0.79581,-0.44091 3.49332,-1.72979 5.99446,-2.86421 2.50114,-1.13441 7.09965,-3.77477 10.21891,-5.86744 3.11927,-2.09265 5.83242,-3.64381 6.02924,-3.44701 0.58228,0.58229 -7.05345,11.43405 -10.72349,15.24003 -1.86367,1.9327 -2.949,3.51401 -2.41186,3.51401 0.53715,0 5.11119,-2.63478 10.16454,-5.85505 5.05336,-3.22029 9.38434,-5.65863 9.62441,-5.41856 0.48385,0.48385 -3.21375,6.70667 -6.25156,10.52093 l -3.37981,3.82838 z"
                   style="opacity:1;fill:none;fill-opacity:1;stroke:#000000;stroke-width:0.145239;stroke-linejoin:miter;stroke-miterlimit:4;stroke-dasharray:none;stroke-dashoffset:0;stroke-opacity:1" />
              </g>
            </g>
          </g>
        </g>
      </g>
    </g>
  </g>
</svg>
